<svg xmlns="http://www.w3.org/2000/svg" xmlns:xlink="http://www.w3.org/1999/xlink" width="60" zoomAndPan="magnify" viewBox="0 0 45 44.999999" height="60" preserveAspectRatio="xMidYMid meet" version="1.0"><defs><filter x="0%" y="0%" width="100%" height="100%" id="6e4d465afe"><feColorMatrix values="0 0 0 0 1 0 0 0 0 1 0 0 0 0 1 0 0 0 1 0" color-interpolation-filters="sRGB"/></filter><mask id="e0255816cb"><g filter="url(#6e4d465afe)"><rect x="-4.5" width="54" fill="#000000" y="-4.5" height="53.999999" fill-opacity="0.45"/></g></mask><clipPath id="1d8b48ffa6"><path d="M 0 0 L 44.417969 0 L 44.417969 44.417969 L 0 44.417969 Z M 0 0 " clip-rule="nonzero"/></clipPath><clipPath id="c041ade7fe"><path d="M 22.207031 0 C 9.941406 0 0 9.941406 0 22.207031 C 0 34.472656 9.941406 44.417969 22.207031 44.417969 C 34.472656 44.417969 44.417969 34.472656 44.417969 22.207031 C 44.417969 9.941406 34.472656 0 22.207031 0 Z M 22.207031 0 " clip-rule="nonzero"/></clipPath><clipPath id="3b2a3d7084"><path d="M 0 0 L 44.25 0 L 44.25 44.25 L 0 44.25 Z M 0 0 " clip-rule="nonzero"/></clipPath><clipPath id="45bd2b39b2"><path d="M 22.207031 0 C 9.941406 0 0 9.941406 0 22.207031 C 0 34.472656 9.941406 44.414062 22.207031 44.414062 C 34.472656 44.414062 44.414062 34.472656 44.414062 22.207031 C 44.414062 9.941406 34.472656 0 22.207031 0 Z M 22.207031 0 " clip-rule="nonzero"/></clipPath><clipPath id="b0426d2027"><rect x="0" width="45" y="0" height="45"/></clipPath><mask id="b52bf365af"><g filter="url(#6e4d465afe)"><rect x="-4.5" width="54" fill="#000000" y="-4.5" height="53.999999" fill-opacity="0.45"/></g></mask><clipPath id="9c68dec479"><path d="M 0 0 L 44.417969 0 L 44.417969 44.417969 L 0 44.417969 Z M 0 0 " clip-rule="nonzero"/></clipPath><clipPath id="383ba7b700"><path d="M 22.207031 0 C 9.941406 0 0 9.941406 0 22.207031 C 0 34.472656 9.941406 44.417969 22.207031 44.417969 C 34.472656 44.417969 44.417969 34.472656 44.417969 22.207031 C 44.417969 9.941406 34.472656 0 22.207031 0 Z M 22.207031 0 " clip-rule="nonzero"/></clipPath><clipPath id="879d2f2034"><path d="M 0 0 L 44.25 0 L 44.25 44.25 L 0 44.25 Z M 0 0 " clip-rule="nonzero"/></clipPath><clipPath id="53582d7820"><path d="M 22.207031 0 C 9.941406 0 0 9.941406 0 22.207031 C 0 34.472656 9.941406 44.414062 22.207031 44.414062 C 34.472656 44.414062 44.414062 34.472656 44.414062 22.207031 C 44.414062 9.941406 34.472656 0 22.207031 0 Z M 22.207031 0 " clip-rule="nonzero"/></clipPath><clipPath id="908019a59e"><rect x="0" width="45" y="0" height="45"/></clipPath></defs><g mask="url(#e0255816cb)"><g transform="matrix(1, 0, 0, 1, 0, 0)"><g clip-path="url(#b0426d2027)"><g clip-path="url(#1d8b48ffa6)"><g clip-path="url(#c041ade7fe)"><path fill="#9b9b9b" d="M 0 0 L 44.417969 0 L 44.417969 44.417969 L 0 44.417969 Z M 0 0 " fill-opacity="1" fill-rule="nonzero"/></g></g><g clip-path="url(#3b2a3d7084)"><g clip-path="url(#45bd2b39b2)"><path stroke-linecap="butt" transform="matrix(0.75, 0, 0, 0.75, 0.0000005, 0.00000000000002931)" fill="none" stroke-linejoin="miter" d="M 29.609376 -0.00000000000003908 C 13.255209 -0.00000000000003908 -0.000000666667 13.255209 -0.000000666667 29.609377 C -0.000000666667 45.963545 13.255209 59.218754 29.609376 59.218754 C 45.963544 59.218754 59.218753 45.963545 59.218753 29.609377 C 59.218753 13.255209 45.963544 -0.00000000000003908 29.609376 -0.00000000000003908 Z M 29.609376 -0.00000000000003908 " stroke="#535353" stroke-width="12" stroke-opacity="1" stroke-miterlimit="4"/></g></g></g></g></g><g mask="url(#b52bf365af)"><g transform="matrix(1, 0, 0, 1, 0, 0)"><g clip-path="url(#908019a59e)"><g clip-path="url(#9c68dec479)"><g clip-path="url(#383ba7b700)"><path fill="#9b9b9b" d="M 0 0 L 44.417969 0 L 44.417969 44.417969 L 0 44.417969 Z M 0 0 " fill-opacity="1" fill-rule="nonzero"/></g></g><g clip-path="url(#879d2f2034)"><g clip-path="url(#53582d7820)"><path stroke-linecap="butt" transform="matrix(0.75, 0, 0, 0.75, 0.0000005, 0.00000000000002931)" fill="none" stroke-linejoin="miter" d="M 29.609376 -0.00000000000003908 C 13.255209 -0.00000000000003908 -0.000000666667 13.255209 -0.000000666667 29.609377 C -0.000000666667 45.963545 13.255209 59.218754 29.609376 59.218754 C 45.963544 59.218754 59.218753 45.963545 59.218753 29.609377 C 59.218753 13.255209 45.963544 -0.00000000000003908 29.609376 -0.00000000000003908 Z M 29.609376 -0.00000000000003908 " stroke="#535353" stroke-width="12" stroke-opacity="1" stroke-miterlimit="4"/></g></g></g></g></g></svg>